<?xml version="1.0" encoding="utf-8"?>
<!-- Adobe Illustrator 16.0.0, SVG Export Plug-In . SVG Version: 6.00 Build 0)  -->
<!DOCTYPE svg PUBLIC "-//W3C//DTD SVG 1.1//EN" "http://www.w3.org/Graphics/SVG/1.1/DTD/svg11.dtd">
<svg version="1.1" xmlns="http://www.w3.org/2000/svg" xmlns:xlink="http://www.w3.org/1999/xlink" width="128" height="128" viewBox="0 0 128 128">
	<path d="M79.875 126q0-0.125 0.063-0.438t0.063-0.563q0-10.625-2.438-21.375t-6.813-15.875q16.25-1.375 24.75-9.563t8.5-21.188q0-11.375-8-17.5v-11.375q0-1.375-1.375-2.688t-2.625-1.313q-1.5 0-14.875 8.75-5.875-0.75-13.125-0.75-7.125 0-13.125 0.75-13.375-8.75-14.875-8.75-1.25 0-2.625 1.375t-1.375 2.625q0 1.125-0.25 5.5t-0.375 6.375q-7.375 6-7.375 17 0 13 8.5 21.188t24.75 9.563q-0.625 0.875-1.75 2.5-5.375 5.875-15.5 5.875-2 0-4-1.688t-3.938-4-4.063-4.688-5.25-4-6.75-1.625q0 1 1.188 2.5t3.313 4.125 3.5 5.375q3.25 6.25 6.75 9.125t9.25 2.875q6 0 10.875-1.75-2.875 11-2.875 22.625v0.5t0.125 0.5q-21-5.375-34.563-22.563t-13.563-39.313q0-13.125 5.063-24.938t13.625-20.375 20.438-13.625 24.875-5.063 24.875 5.063 20.438 13.625 13.625 20.375 5.063 24.938q0 22.125-13.563 39.313t-34.563 22.563z" fill="#000000" />
</svg>
