<?xml version="1.0" encoding="utf-8"?>
<!-- Adobe Illustrator 16.0.0, SVG Export Plug-In . SVG Version: 6.00 Build 0)  -->
<!DOCTYPE svg PUBLIC "-//W3C//DTD SVG 1.1//EN" "http://www.w3.org/Graphics/SVG/1.1/DTD/svg11.dtd">
<svg version="1.1" id="Layer_1" xmlns="http://www.w3.org/2000/svg" xmlns:xlink="http://www.w3.org/1999/xlink" x="0px" y="0px"
	 width="128px" height="128px" viewBox="0 0 128 128" style="enable-background:new 0 0 128 128;" xml:space="preserve">
<path d="M108.8,19.2H103V32H82.6V19.2H45.4V32H25V19.2h-5.8c-7,0-12.8,5.8-12.8,12.8v76.8c0,7,5.8,12.8,12.8,12.8h89.6
	c7,0,12.8-5.8,12.8-12.8V32C121.6,25,115.8,19.2,108.8,19.2L108.8,19.2z M108.8,108.8H19.2V45.6h89.6V108.8z M39.7,6.4h-9v21.8h9
	V6.4z M97.3,6.4h-9v21.8h9V6.4z"/>
<path d="M68,73.9c3.9-2.1,5.8-4.9,5.8-8.4c0-2.5-0.9-4.7-2.8-6.7c-2.3-2.4-5.3-3.6-9.1-3.6c-2.2,0-4.2,0.4-6,1.2
	c-1.8,0.8-3.2,2-4.2,3.4c-1,1.4-1.7,3.4-2.2,5.8l7.1,1.2c0.2-1.8,0.8-3.1,1.7-4c0.9-0.9,2.1-1.4,3.4-1.4c1.3,0,2.4,0.4,3.2,1.2
	c0.8,0.8,1.2,1.9,1.2,3.2c0,1.6-0.6,2.9-1.7,3.8c-1.1,1-2.7,1.4-4.8,1.4l-0.9,6.3c1.4-0.4,2.6-0.6,3.5-0.6c1.5,0,2.8,0.6,3.8,1.7
	s1.6,2.7,1.6,4.6c0,2-0.5,3.7-1.6,4.9c-1.1,1.2-2.4,1.8-4,1.8c-1.5,0-2.7-0.5-3.8-1.5c-1-1-1.7-2.4-1.9-4.3l-7.4,0.9
	c0.4,3.4,1.8,6.1,4.2,8.2s5.4,3.1,9,3.1c3.8,0,7-1.2,9.6-3.7c2.6-2.5,3.9-5.5,3.9-9c0-2.4-0.7-4.5-2.1-6.2
	C72.1,75.5,70.3,74.4,68,73.9L68,73.9z"/>
</svg>
