<?xml version="1.0" encoding="utf-8"?>
<!-- Adobe Illustrator 16.0.0, SVG Export Plug-In . SVG Version: 6.00 Build 0)  -->
<!DOCTYPE svg PUBLIC "-//W3C//DTD SVG 1.1//EN" "http://www.w3.org/Graphics/SVG/1.1/DTD/svg11.dtd">
<svg version="1.1" id="Layer_1" xmlns="http://www.w3.org/2000/svg" xmlns:xlink="http://www.w3.org/1999/xlink" x="0px" y="0px"
	 width="128px" height="128px" viewBox="0 0 128 128" style="enable-background:new 0 0 128 128;" xml:space="preserve">
<path d="M108.8,19.2H103V32H82.6V19.2H45.4V32H25V19.2h-5.8c-7,0-12.8,5.8-12.8,12.8v76.8c0,7,5.8,12.8,12.8,12.8h89.6
	c7,0,12.8-5.8,12.8-12.8V32C121.6,25,115.8,19.2,108.8,19.2L108.8,19.2z M108.8,108.8H19.2V45.6h89.6V108.8z M39.7,6.4h-9v21.8h9
	V6.4z M97.3,6.4h-9v21.8h9V6.4z"/>
<path d="M57.3,63.8c-2.4,1.8-4.5,3.1-6.5,3.7v7c3.8-1.3,7.1-3.2,9.9-5.8v28.4h8.2v-40h-6.7C61.3,59.6,59.7,62,57.3,63.8z"/>
</svg>
