<?xml version="1.0" encoding="utf-8"?>
<!-- Generator: Adobe Illustrator 16.0.0, SVG Export Plug-In . SVG Version: 6.00 Build 0)  -->
<!DOCTYPE svg PUBLIC "-//W3C//DTD SVG 1.1//EN" "http://www.w3.org/Graphics/SVG/1.1/DTD/svg11.dtd">
<svg version="1.1" id="Layer_1" xmlns="http://www.w3.org/2000/svg" xmlns:xlink="http://www.w3.org/1999/xlink" x="0px" y="0px"
	 width="137px" height="128px" viewBox="0 0 137 128" style="enable-background:new 0 0 137 128;" xml:space="preserve">
<style type="text/css">
<![CDATA[
	.st0{fill:#FFFFFF;}
]]>
</style>
<path d="M128,82.3V45.7c-5,0-9.4-1.8-12.9-5.4c-3.6-3.6-5.4-7.9-5.4-12.9H27.4c0,5-1.8,9.4-5.4,12.9c-3.6,3.6-7.9,5.4-12.9,5.4v36.6
	c5,0,9.4,1.8,12.9,5.4c3.6,3.6,5.4,7.9,5.4,12.9h82.3c0-5,1.8-9.4,5.4-12.9C118.6,84.1,123,82.3,128,82.3z M137.1,22.9v82.3
	c0,1.2-0.5,2.3-1.4,3.2c-0.9,0.9-2,1.4-3.2,1.4H4.6c-1.2,0-2.3-0.5-3.2-1.4c-0.9-0.9-1.4-2-1.4-3.2V22.9c0-1.2,0.5-2.3,1.4-3.2
	c0.9-0.9,2-1.4,3.2-1.4h128c1.2,0,2.3,0.5,3.2,1.4C136.7,20.6,137.1,21.6,137.1,22.9z"/>
<path d="M68.5,36.5c-21.1,0-38.1,12.3-38.1,27.5s17.1,27.5,38.1,27.5s38.1-12.3,38.1-27.5S89.6,36.5,68.5,36.5z M68.5,87.3
	c-17.8,0-32.3-10.4-32.3-23.3c0-12.9,14.4-23.3,32.3-23.3c17.8,0,32.3,10.4,32.3,23.3C100.8,76.9,86.3,87.3,68.5,87.3z"/>
<circle cx="18.5" cy="63" r="6.5"/>
<circle cx="118.5" cy="63" r="6.5"/>
<path d="M54.2,59.8v1.4c0,0.1,0,0.2-0.1,0.3c0,0-0.2,0.1-0.3,0.1h-2.3c-0.2,1.3-0.8,2.4-1.8,3.2c-0.9,0.8-2.2,1.3-3.8,1.5
	c1.5,1.6,3.6,4.1,6.3,7.4c0.1,0.2,0.1,0.3,0,0.4c0,0.1-0.2,0.2-0.4,0.2h-2.7c-0.1,0-0.2,0-0.3-0.1c-2.8-3.3-5.1-6-6.8-7.8
	c-0.1-0.1-0.1-0.2-0.1-0.3v-1.7c0-0.1,0.1-0.2,0.1-0.3c0-0.1,0.2-0.2,0.3-0.2h1.5c1.2,0,2.2-0.2,2.9-0.6c0.7-0.4,1.2-0.9,1.4-1.7h-6
	c-0.1,0-0.2-0.1-0.3-0.1c-0.1-0.1-0.1-0.2-0.1-0.3v-1.4c0-0.1,0-0.2,0.1-0.3c0.1-0.1,0.2-0.1,0.3-0.1h5.7c-0.5-1-1.7-1.5-3.7-1.5h-2
	c-0.1,0-0.2,0-0.3-0.1c-0.1-0.1-0.1-0.2-0.1-0.3v-1.8c0-0.1,0-0.2,0.1-0.3c0.1-0.1,0.2-0.1,0.3-0.1h11.4c0.1,0,0.2,0,0.3,0.1
	c0.1,0.1,0.1,0.2,0.1,0.3V57c0,0.1-0.1,0.3-0.1,0.3c-0.1,0.1-0.2,0.1-0.3,0.1h-3.2c0.4,0.5,0.7,1.2,0.9,2h2.3c0.2,0,0.2,0.1,0.3,0.1
	C54.1,59.6,54.2,59.7,54.2,59.8L54.2,59.8z"/>
<path d="M64.2,60.8c-0.8,0-1.6,0.2-2.4,0.6l0.6-3.2H69v-3.3h-9.4l-1.8,9.7l2.9,0.4c0.8-0.9,1.7-1.4,2.8-1.4c0.8,0,1.5,0.3,2,0.9
	s0.8,1.4,0.8,2.6c0,1.2-0.3,2.1-0.8,2.7c-0.5,0.6-1.1,0.9-1.9,0.9c-0.7,0-1.2-0.2-1.7-0.7s-0.8-1.1-0.9-1.9l-3.6,0.4
	c0.2,1.6,0.9,2.8,1.9,3.7c1.1,0.9,2.5,1.4,4.2,1.4c2.2,0,3.8-0.8,5-2.5c0.9-1.2,1.3-2.6,1.3-4.1c0-1.8-0.5-3.3-1.7-4.5
	C67.1,61.3,65.7,60.8,64.2,60.8z"/>
<path d="M76.2,54.9c-1.8,0-3.2,0.6-4.2,1.9c-1.2,1.5-1.8,4.1-1.8,7.6c0,3.6,0.6,6.1,1.7,7.5c1.1,1.4,2.6,2.1,4.4,2.1
	s3.2-0.6,4.2-1.9c1.2-1.5,1.8-4.1,1.8-7.6s-0.6-6.1-1.8-7.6C79.4,55.5,78,54.9,76.2,54.9z"/>
<path class="st0" d="M78.6,69.1c-0.2,0.7-0.5,1.2-0.8,1.5c-0.3,0.3-0.7,0.4-1.2,0.4c-0.4,0-0.8-0.1-1.2-0.4
	c-0.3-0.3-0.6-0.8-0.8-1.6c-0.2-0.8-0.3-2.3-0.3-4.5s0.1-3.7,0.4-4.7c0.2-0.7,0.5-1.2,0.8-1.5c0.3-0.3,0.7-0.4,1.2-0.4
	c0.4,0,0.8,0.1,1.2,0.4c0.3,0.3,0.6,0.8,0.8,1.6c0.2,0.8,0.3,2.3,0.3,4.5C79,66.6,78.9,68.1,78.6,69.1z"/>
<path d="M89.2,54.9c-1.8,0-3.2,0.6-4.2,1.9c-1.2,1.5-1.8,4.1-1.8,7.6c0,3.6,0.6,6.1,1.7,7.5c1.1,1.4,2.6,2.1,4.4,2.1
	s3.2-0.6,4.2-1.9c1.2-1.5,1.8-4.1,1.8-7.6s-0.6-6.1-1.8-7.6C92.5,55.5,91,54.9,89.2,54.9z"/>
<path class="st0" d="M91.7,69.1c-0.2,0.7-0.5,1.2-0.8,1.5c-0.3,0.3-0.7,0.4-1.2,0.4c-0.4,0-0.8-0.1-1.2-0.4
	c-0.3-0.3-0.6-0.8-0.8-1.6s-0.3-2.3-0.3-4.5s0.1-3.7,0.4-4.7c0.2-0.7,0.5-1.2,0.8-1.5c0.3-0.3,0.7-0.4,1.2-0.4
	c0.4,0,0.8,0.1,1.2,0.4c0.3,0.3,0.6,0.8,0.8,1.6c0.2,0.8,0.3,2.3,0.3,4.5C92.1,66.6,91.9,68.1,91.7,69.1z"/>
</svg>
