<?xml version="1.0" encoding="utf-8"?>
<!-- Adobe Illustrator 16.0.0, SVG Export Plug-In . SVG Version: 6.00 Build 0)  -->
<!DOCTYPE svg PUBLIC "-//W3C//DTD SVG 1.1//EN" "http://www.w3.org/Graphics/SVG/1.1/DTD/svg11.dtd">
<svg version="1.1" id="Layer_1" xmlns="http://www.w3.org/2000/svg" xmlns:xlink="http://www.w3.org/1999/xlink" x="0px" y="0px"
	 width="176.3px" height="128px" viewBox="0 0 176.3 128" style="enable-background:new 0 0 176.3 128;" xml:space="preserve">
<path d="M142,100.3V45.7c-5,0-9.4-1.8-12.9-5.4c-3.6-3.6-5.4-7.9-5.4-12.9H41.4c0,5-1.8,9.4-5.4,12.9c-3.6,3.6-7.9,5.4-12.9,5.4
	v36.6c5,0,9.4,1.8,12.9,5.4c3.6,3.6,5.4,7.9,5.4,12.9h82.3l9.9,0.1L142,100.3z M151.1,22.9v82.3c0,1.2-0.5,2.3-1.4,3.2
	c-0.9,0.9-2,1.4-3.2,1.4h-128c-1.2,0-2.3-0.5-3.2-1.4c-0.9-0.9-1.4-2-1.4-3.2V22.9c0-1.2,0.5-2.3,1.4-3.2c0.9-0.9,2-1.4,3.2-1.4h128
	c1.2,0,2.3,0.5,3.2,1.4C150.6,20.6,151.1,21.6,151.1,22.9z"/>
<path d="M140.9,109.8c-4.8,0-9.2-0.3-13.3-0.9c-4.1-0.6-7.3-1.4-9.6-2.4c-2.4-1-3.5-2.1-3.5-3.3v-6.6c0-0.3,0.1-0.6,0.3-1
	c2.1,1.3,5.6,2.3,10.4,3.1c4.8,0.8,10.1,1.2,15.7,1.2s10.8-0.4,15.7-1.2c4.8-0.8,8.3-1.8,10.4-3.1c0.2,0.4,0.3,0.7,0.3,1v6.6
	c0,1.2-1.2,2.3-3.5,3.3c-2.3,1-5.6,1.8-9.6,2.4C150.1,109.5,145.7,109.8,140.9,109.8z M140.9,96.6c-4.8,0-9.2-0.3-13.3-0.9
	c-4.1-0.6-7.3-1.4-9.6-2.4c-2.4-1-3.5-2.1-3.5-3.3v-6.6c0-0.3,0.1-0.6,0.3-1c2.1,1.3,5.6,2.3,10.4,3.1c4.8,0.8,10.1,1.2,15.7,1.2
	s10.8-0.4,15.7-1.2c4.8-0.8,8.3-1.8,10.4-3.1c0.2,0.4,0.3,0.7,0.3,1V90c0,1.2-1.2,2.3-3.5,3.3c-2.4,1-5.6,1.8-9.6,2.4
	C150.1,96.3,145.7,96.6,140.9,96.6z M140.9,83.4c-4.8,0-9.2-0.3-13.3-0.9s-7.3-1.4-9.6-2.4c-2.4-1-3.5-2.1-3.5-3.3v-6.6
	c0-0.3,0.1-0.6,0.3-1c2.1,1.3,5.6,2.3,10.4,3.1c4.8,0.8,10.1,1.2,15.7,1.2s10.8-0.4,15.7-1.2c4.8-0.8,8.3-1.8,10.4-3.1
	c0.2,0.4,0.3,0.7,0.3,1v6.6c0,1.2-1.2,2.3-3.5,3.3c-2.4,1-5.6,1.8-9.6,2.4C150.1,83.1,145.7,83.4,140.9,83.4z M140.9,70.2
	c-4.8,0-9.2-0.3-13.3-0.9c-4.1-0.6-7.3-1.4-9.6-2.4c-2.4-1-3.5-2.1-3.5-3.3c0-1.2,1.2-2.3,3.5-3.3c2.4-1,5.6-1.8,9.6-2.4
	c4.1-0.6,8.5-0.9,13.3-0.9c4.8,0,9.2,0.3,13.3,0.9c4.1,0.6,7.3,1.4,9.6,2.4c2.3,1,3.5,2.1,3.5,3.3c0,1.2-1.2,2.3-3.5,3.3
	c-2.4,1-5.6,1.8-9.6,2.4C150.1,69.9,145.7,70.2,140.9,70.2z"/>
<circle cx="33" cy="63.8" r="5.7"/>
<path d="M82.7,37C68,37,56,49,56,63.7c0,14.8,12,26.7,26.7,26.7c14.8,0,26.7-12,26.7-26.7C109.5,49,97.5,37,82.7,37z M82.7,86.3
	c-12.5,0-22.6-10.1-22.6-22.6s10.1-22.6,22.6-22.6c12.5,0,22.6,10.1,22.6,22.6S95.2,86.3,82.7,86.3z M73.3,57
	c-1.2,0.9-2.3,1.6-3.4,1.9v3.6c2-0.6,3.7-1.6,5.1-3v14.6h4.2V53.5h-3.5C75.4,54.8,74.5,56,73.3,57z"/>
<path d="M89.7,67c1.2-1.1,2.1-2,2.6-2.6c0.7-0.9,1.2-1.8,1.6-2.6c0.3-0.8,0.5-1.7,0.5-2.6c0-1.6-0.6-3-1.7-4.1
	c-1.1-1.1-2.8-1.6-4.8-1.6c-1.9,0-3.4,0.5-4.6,1.4c-1.2,0.9-2,2.5-2.2,4.7L85,60c0.1-1.2,0.4-2,0.8-2.5c0.4-0.5,1.1-0.7,2-0.7
	c0.8,0,1.5,0.2,2,0.7s0.7,1.1,0.7,2c0,0.8-0.3,1.6-0.8,2.4c-0.4,0.6-1.5,1.7-3.3,3.4c-2.2,2.1-3.7,3.7-4.4,4.9s-1.2,2.6-1.3,3.9
	h13.8v-3.7h-7.8c0.2-0.4,0.5-0.7,0.8-1.1C87.7,68.9,88.5,68.2,89.7,67z"/>
</svg>
