<?xml version="1.0" encoding="utf-8"?>
<!-- Generator: Adobe Illustrator 16.0.0, SVG Export Plug-In . SVG Version: 6.00 Build 0)  -->
<!DOCTYPE svg PUBLIC "-//W3C//DTD SVG 1.1//EN" "http://www.w3.org/Graphics/SVG/1.1/DTD/svg11.dtd">
<svg version="1.1" id="Layer_1" xmlns="http://www.w3.org/2000/svg" xmlns:xlink="http://www.w3.org/1999/xlink" x="0px" y="0px"
	 width="137px" height="128px" viewBox="0 0 137 128" style="enable-background:new 0 0 137 128;" xml:space="preserve">
<path d="M128,82.3V45.7c-5,0-9.4-1.8-12.9-5.4c-3.6-3.6-5.4-7.9-5.4-12.9H27.4c0,5-1.8,9.4-5.4,12.9c-3.6,3.6-7.9,5.4-12.9,5.4v36.6
	c5,0,9.4,1.8,12.9,5.4c3.6,3.6,5.4,7.9,5.4,12.9h82.3c0-5,1.8-9.4,5.4-12.9C118.6,84.1,123,82.3,128,82.3z M137.1,22.9v82.3
	c0,1.2-0.5,2.3-1.4,3.2c-0.9,0.9-2,1.4-3.2,1.4H4.6c-1.2,0-2.3-0.5-3.2-1.4c-0.9-0.9-1.4-2-1.4-3.2V22.9c0-1.2,0.5-2.3,1.4-3.2
	c0.9-0.9,2-1.4,3.2-1.4h128c1.2,0,2.3,0.5,3.2,1.4C136.7,20.6,137.1,21.6,137.1,22.9z"/>
<path d="M69.5,36.5c-21.1,0-38.1,12.3-38.1,27.5s17.1,27.5,38.1,27.5s38.1-12.3,38.1-27.5S90.6,36.5,69.5,36.5z M69.5,87.3
	c-17.8,0-32.3-10.4-32.3-23.3c0-12.9,14.4-23.3,32.3-23.3c17.8,0,32.3,10.4,32.3,23.3C101.8,76.9,87.3,87.3,69.5,87.3z"/>
<circle cx="18.5" cy="63" r="6.5"/>
<circle cx="118.5" cy="63" r="6.5"/>
<path d="M80.6,55.5v2.8c0,0.3-0.1,0.5-0.2,0.6c-0.1,0.1-0.4,0.2-0.6,0.2h-4.6c-0.4,2.6-1.6,4.8-3.6,6.4c-1.9,1.7-4.5,2.7-7.6,3
	c3.1,3.3,7.3,8.2,12.7,14.8c0.3,0.3,0.3,0.6,0.1,0.9c-0.1,0.3-0.4,0.5-0.8,0.5h-5.4c-0.3,0-0.5-0.1-0.7-0.3
	c-5.6-6.7-10.2-12-13.7-15.7C56,68.5,56,68.3,56,68.1v-3.5c0-0.2,0.1-0.4,0.3-0.6c0.2-0.2,0.4-0.3,0.6-0.3H60c2.4,0,4.4-0.4,5.9-1.2
	s2.4-1.9,2.8-3.4h-12c-0.3,0-0.5-0.1-0.6-0.2c-0.2-0.2-0.2-0.4-0.2-0.6v-2.8c0-0.3,0.1-0.5,0.2-0.6c0.2-0.2,0.4-0.2,0.6-0.2h11.4
	c-1-2.1-3.5-3.1-7.4-3.1h-4c-0.2,0-0.4-0.1-0.6-0.3c-0.2-0.2-0.3-0.4-0.3-0.6V47c0-0.3,0.1-0.5,0.2-0.6c0.2-0.2,0.4-0.2,0.6-0.2
	h22.9c0.3,0,0.5,0.1,0.6,0.2c0.2,0.2,0.2,0.4,0.2,0.6v2.8c0,0.3-0.1,0.5-0.2,0.6c-0.2,0.2-0.4,0.2-0.6,0.2h-6.4
	c0.9,1.1,1.5,2.4,1.8,4h4.7c0.3,0,0.5,0.1,0.6,0.2C80.5,55.1,80.6,55.3,80.6,55.5L80.6,55.5z"/>
</svg>
