<?xml version="1.0" encoding="utf-8"?>
<!-- Generator: Adobe Illustrator 16.0.0, SVG Export Plug-In . SVG Version: 6.00 Build 0)  -->
<!DOCTYPE svg PUBLIC "-//W3C//DTD SVG 1.1//EN" "http://www.w3.org/Graphics/SVG/1.1/DTD/svg11.dtd">
<svg version="1.1" id="Layer_1" xmlns="http://www.w3.org/2000/svg" xmlns:xlink="http://www.w3.org/1999/xlink" x="0px" y="0px"
	 width="169px" height="146px" viewBox="0 0 169 146" style="enable-background:new 0 0 169 146;" xml:space="preserve">
<path d="M84.7,91.5l1.4,0.3l8.4,1.2c-12.1,33.1,20.4,48,20.4,48c-2.5,0.5-5.6,0.8-9.4,1.1c-3.8,0.3-7.2,0.4-10,0.6
	c-2.8,0.1-6.5,0.2-10.9,0.3c-4.5,0.1-7.8,0.1-10.1,0.1H55.6c0,0-3.4,0-10.1-0.1c-6.8-0.1-10.4-0.2-10.9-0.3c-0.5-0.1-3.9-0.3-10-0.6
	c-6.1-0.3-9.3-0.6-9.4-1.1c-0.2-0.5-2.6-1-7.2-1.5s-6.4-1.2-5.2-2.1c1.2-0.9,0.6-1.8-1.7-2.8c0.2-7.3,4.8-26.8,13.8-32.4
	c9-5.6,20.4-9.4,34.3-11.2v-4.1c-4.3-1.9-8.1-4.6-11.3-8.1c-3.2-3.5-5.7-7.6-7.5-12.3c-1.8-4.7-3.2-9.8-4-15.1
	c-1-5.5-1.4-11.3-1.4-17.5c0-5.3,1-10.1,3.1-14.3c2.1-4.2,5-7.5,8.6-10.1C40.4,7,44.6,5,49.3,3.7c4.7-1.3,10-1.9,15.6-1.9
	c5.7,0,10.9,0.6,15.6,1.9c4.7,1.3,9,3.2,12.6,5.8c3.6,2.6,6.5,5.9,8.6,10.1c2.1,4.2,3.1,8.9,3.1,14.3c0,29.2-8,46.9-24,53.3V91"/>
<path d="M130.3,70.5c-19.7,0-35.8,16-35.8,35.8s16,35.8,35.8,35.8s35.8-16,35.8-35.8S150,70.5,130.3,70.5z M130.3,136.5
	c-16.7,0-30.3-13.5-30.3-30.3S113.5,76,130.3,76s30.3,13.5,30.3,30.3S147,136.5,130.3,136.5z"/>
<path d="M143.2,120.9c-3.3,0-7.7-2.6-13.1-7.8c-5.4,5.2-9.8,7.8-13.1,7.8c-3.6,0-6.7-1.3-9.3-3.8c-2.6-2.6-3.8-5.7-3.8-9.3
	c0-3.6,1.3-6.7,3.8-9.3c2.6-2.6,5.7-3.8,9.3-3.8c3.4,0,7.7,2.6,13.1,7.8c5.4-5.2,9.8-7.8,13.1-7.8c3.6,0,6.7,1.3,9.3,3.8
	s3.8,5.7,3.8,9.3c0,3.6-1.3,6.7-3.8,9.3C150,119.7,146.8,120.9,143.2,120.9z M116.9,101.2c-2,0-3.5,0.6-4.7,1.9
	c-1.2,1.3-1.8,2.8-1.8,4.7c0,1.8,0.6,3.4,1.8,4.7s2.8,1.9,4.7,1.9c0.8,0,1.5-0.2,2.4-0.7c0.8-0.4,1.6-1,2.3-1.6
	c0.7-0.6,1.3-1.3,1.8-1.9c0.5-0.7,1-1.2,1.3-1.6l0.5-0.7c-0.1-0.2-0.3-0.4-0.5-0.7s-0.6-0.8-1.3-1.6c-0.6-0.8-1.3-1.4-1.9-2
	c-0.6-0.6-1.4-1.1-2.2-1.6C118.4,101.5,117.6,101.2,116.9,101.2L116.9,101.2z M143.2,101.2c-0.8,0-1.5,0.2-2.4,0.7
	c-0.8,0.4-1.6,1-2.3,1.6c-0.7,0.7-1.3,1.3-1.8,1.9c-0.5,0.6-1,1.2-1.3,1.6l-0.5,0.7c0.1,0.2,0.3,0.4,0.5,0.7
	c0.2,0.3,0.6,0.8,1.3,1.6c0.6,0.8,1.3,1.4,1.9,2c0.6,0.6,1.4,1.1,2.2,1.6c0.9,0.5,1.7,0.7,2.4,0.7c1.9,0,3.5-0.6,4.7-1.9
	c1.2-1.3,1.8-2.8,1.8-4.7c0-1.8-0.6-3.4-1.8-4.7C146.7,101.9,145.1,101.2,143.2,101.2L143.2,101.2z"/>
<path d="M111,53.3c1.6,1.9,4.2,1.9,5.8,0l9.4-11.4v27.6c0,2.7,1.8,5,4.1,5s4.1-2.2,4.1-5V42l9.4,11.4c1.6,1.9,4.2,1.9,5.8,0
	c1.6-1.9,1.6-5.1,0-7L130.4,23L111,46.3C109.4,48.3,109.4,51.4,111,53.3L111,53.3z"/>
</svg>
