<?xml version="1.0" encoding="utf-8"?>
<!-- Adobe Illustrator 16.0.0, SVG Export Plug-In . SVG Version: 6.00 Build 0)  -->
<!DOCTYPE svg PUBLIC "-//W3C//DTD SVG 1.1//EN" "http://www.w3.org/Graphics/SVG/1.1/DTD/svg11.dtd">
<svg version="1.1" id="Layer_1" xmlns="http://www.w3.org/2000/svg" xmlns:xlink="http://www.w3.org/1999/xlink" x="0px" y="0px"
	 width="128px" height="128px" viewBox="0 0 128 128" style="enable-background:new 0 0 128 128;" xml:space="preserve">
<path d="M13.8,12.4c-3,0-5.5,2.4-5.5,5.5v97.7h21.8V17.9c0-3-1.4-5.5-4.4-5.5H13.8L13.8,12.4z M41.1,50.6v65h21.8v-65
	c0-3-1.4-5.5-4.4-5.5h-12C43.5,45.1,41.1,47.6,41.1,50.6z M73.8,83.3v32.3h21.8V83.3c0-3-1.4-5.5-4.4-5.5h-12
	C76.2,77.9,73.8,80.3,73.8,83.3z"/>
<path d="M99,13V38h23.8C121.3,24.9,111.5,14.5,99,13L99,13z M92.2,13c-13.4,1.8-23.7,13.9-23.7,28.4c0,15.8,12.2,28.7,27.3,28.7
	c13.8,0,25.3-10.9,27-24.9H95.4c-1.8,0-3.2-1.5-3.2-3.4V13L92.2,13z"/>
</svg>
