<?xml version="1.0" encoding="utf-8"?>
<!-- Adobe Illustrator 16.0.0, SVG Export Plug-In . SVG Version: 6.00 Build 0)  -->
<!DOCTYPE svg PUBLIC "-//W3C//DTD SVG 1.1//EN" "http://www.w3.org/Graphics/SVG/1.1/DTD/svg11.dtd">
<svg version="1.1" id="Layer_1" xmlns="http://www.w3.org/2000/svg" xmlns:xlink="http://www.w3.org/1999/xlink" x="0px" y="0px"
	 width="128px" height="128px" viewBox="0 0 128 128" style="enable-background:new 0 0 128 128;" xml:space="preserve">
<style type="text/css">
<![CDATA[
	.st0{fill:#FF784B;}
	.st1{fill:#FFFFFF;}
	.st2{fill:#3179DF;}
]]>
</style>
<circle class="st0" cx="64.5" cy="59.3" r="53.8"/>
<path class="st2" d="M99,73.8l4.1-5.5v-4.1H102l-0.2-6l0.7-0.5V56h0.6v-2.8h-5.3c0,0,0-0.7-2-1.2v-1.4c0,0,2.2-2.2,2.8-2
	c0,0-5-1-6.9,1.8l-2.7,0.1c0,0-0.7-1.3,0.8-3L81,52.9l-3.8,0.3L76,52l-1.5,0.5v0.8l1.2,0.7l0.4,1.8c0,0-3.5,1-1.6,2.3l0.2,5.2
	c0,0,1.5,0.8-0.1,1.7h-0.4v6.1c0,0,0.4,1.4,3.3,3.1v5.5h-3.5c0,0-2.8-4.3-13.2-4.9l-2.9-44.1L54.8,41c0,0-6.4-3.7-13.2-0.8h-1.3
	l-4.1-9.8l-2.3,43l-14.6,6.5h-4.8L1.1,84l61.4,39L127,90l-6.5-0.3c0,0-3.1-3.7-6.5-4.3h-6.1c0,0-3.3-3.7-8.8-3.6"/>
<path class="st1" d="M91,67h6.8c0,0-0.7,3.5-3.4,2.9C94.3,69.9,92.1,70.4,91,67z"/>
<path class="st1" d="M79.6,67h6.8c0,0-0.7,3.5-3.4,2.9C83,69.9,80.7,70.4,79.6,67z"/>
<polygon class="st1" points="49.1,56.7 56.2,55.3 52.6,60 "/>
<polygon class="st1" points="37.2,55.3 44.3,57 41.1,60 "/>
</svg>
