<?xml version="1.0" encoding="utf-8"?>
<!-- Adobe Illustrator 16.0.0, SVG Export Plug-In . SVG Version: 6.00 Build 0)  -->
<!DOCTYPE svg PUBLIC "-//W3C//DTD SVG 1.1//EN" "http://www.w3.org/Graphics/SVG/1.1/DTD/svg11.dtd">
<svg version="1.1" xmlns="http://www.w3.org/2000/svg" xmlns:xlink="http://www.w3.org/1999/xlink" width="137" height="128" viewBox="0 0 137 128">
	<path d="M42.357 64q-11.571 0.357-18.929 9.143h-9.571q-5.857 0-9.857-2.893t-4-8.464q0-25.214 8.857-25.214 0.429 0 3.107 1.5t6.964 3.036 8.5 1.536q4.786 0 9.5-1.643-0.357 2.643-0.357 4.714 0 9.929 5.786 18.286zM118.857 109.5q0 8.571-5.214 13.536t-13.857 4.964h-62.429q-8.643 0-13.857-4.964t-5.214-13.536q0-3.786 0.25-7.393t1-7.786 1.893-7.75 3.071-6.964 4.429-5.786 6.107-3.821 7.964-1.429q0.714 0 3.071 1.536t5.214 3.429 7.643 3.429 9.643 1.536 9.643-1.536 7.643-3.429 5.214-3.429 3.071-1.536q4.357 0 7.964 1.429t6.107 3.821 4.429 5.786 3.071 6.964 1.893 7.75 1 7.786 0.25 7.393zM45.714 18.286q0 7.571-5.357 12.929t-12.929 5.357-12.929-5.357-5.357-12.929 5.357-12.929 12.929-5.357 12.929 5.357 5.357 12.929zM96 45.714q0 11.357-8.036 19.393t-19.393 8.036-19.393-8.036-8.036-19.393 8.036-19.393 19.393-8.036 19.393 8.036 8.036 19.393zM137.143 61.786q0 5.571-4 8.464t-9.857 2.893h-9.571q-7.357-8.786-18.929-9.143 5.786-8.357 5.786-18.286 0-2.071-0.357-4.714 4.714 1.643 9.5 1.643 4.214 0 8.5-1.536t6.964-3.036 3.107-1.5q8.857 0 8.857 25.214zM128 18.286q0 7.571-5.357 12.929t-12.929 5.357-12.929-5.357-5.357-12.929 5.357-12.929 12.929-5.357 12.929 5.357 5.357 12.929z" fill="#000000" />
</svg>
