<?xml version="1.0" encoding="utf-8"?>
<!-- Adobe Illustrator 16.0.0, SVG Export Plug-In . SVG Version: 6.00 Build 0)  -->
<!DOCTYPE svg PUBLIC "-//W3C//DTD SVG 1.1//EN" "http://www.w3.org/Graphics/SVG/1.1/DTD/svg11.dtd">
<svg version="1.1" xmlns="http://www.w3.org/2000/svg" xmlns:xlink="http://www.w3.org/1999/xlink" width="128" height="128" viewBox="0 0 128 128">
	<path d="M104 92v8q0 1.625 1.188 2.813t2.813 1.188 2.813 1.188 1.188 2.813-1.188 2.813-2.813 1.188h-44v16l-12-8-12 8v-16h-16q-3.25 0-5.625-2.313t-2.375-5.688v-96q0-3.25 2.375-5.625t5.625-2.375h80q3.375 0 5.688 2.375t2.313 5.625v80h-4q-1.625 0-2.813 1.188t-1.188 2.813zM24 92v8q0 1.625 1.188 2.813t2.813 1.188h12v-8h24v8h28q1.625 0 2.813-1.188t1.188-2.813v-8q0-1.625-1.188-2.813t-2.813-1.188h-64q-1.625 0-2.813 1.188t-1.188 2.813zM104 12q0-1.625-1.188-2.813t-2.813-1.188h-64q-1.625 0-2.813 1.188t-1.188 2.813v64q0 1.625 1.188 2.813t2.813 1.188h64q1.625 0 2.813-1.188t1.188-2.813v-64zM84 48h-32q-1.625 0-2.813-1.188t-1.188-2.813 1.188-2.813 2.813-1.188h32q1.625 0 2.813 1.188t1.188 2.813-1.188 2.813-2.813 1.188zM84 32h-32q-1.625 0-2.813-1.188t-1.188-2.813 1.188-2.813 2.813-1.188h32q1.625 0 2.813 1.188t1.188 2.813-1.188 2.813-2.813 1.188z" fill="#000000" />
</svg>
