<?xml version="1.0" encoding="utf-8"?>
<!-- Generator: Adobe Illustrator 16.0.0, SVG Export Plug-In . SVG Version: 6.00 Build 0)  -->
<!DOCTYPE svg PUBLIC "-//W3C//DTD SVG 1.1//EN" "http://www.w3.org/Graphics/SVG/1.1/DTD/svg11.dtd">
<svg version="1.1" id="Layer_1" xmlns="http://www.w3.org/2000/svg" xmlns:xlink="http://www.w3.org/1999/xlink" x="0px" y="0px"
	 width="88px" height="128px" viewBox="0 0 88 128" enable-background="new 0 0 88 128" xml:space="preserve">
<path d="M26.13,111.35c0-2.141-0.75-3.962-2.249-5.46c-1.499-1.5-3.32-2.249-5.461-2.249s-3.961,0.749-5.461,2.249
	c-1.5,1.498-2.25,3.319-2.25,5.46c0,2.142,0.75,3.962,2.25,5.462s3.319,2.248,5.461,2.248s3.962-0.748,5.461-2.248
	S26.13,113.491,26.13,111.35z M26.13,18.827c0-2.142-0.75-3.961-2.249-5.461s-3.32-2.249-5.461-2.249s-3.961,0.75-5.461,2.249
	s-2.25,3.319-2.25,5.461c0,2.142,0.75,3.962,2.25,5.461c1.5,1.5,3.319,2.249,5.461,2.249s3.962-0.749,5.461-2.249
	C25.38,22.789,26.13,20.968,26.13,18.827z M77.532,29.107c0-2.142-0.749-3.962-2.248-5.461c-1.499-1.499-3.319-2.249-5.461-2.249
	s-3.963,0.75-5.462,2.249c-1.5,1.5-2.248,3.319-2.248,5.461c0,2.142,0.748,3.962,2.248,5.461c1.499,1.5,3.32,2.249,5.462,2.249
	s3.962-0.749,5.461-2.249S77.532,31.249,77.532,29.107z M85.242,29.107c0,2.784-0.696,5.367-2.088,7.75
	c-1.393,2.383-3.267,4.244-5.622,5.582c-0.106,15.367-6.157,26.45-18.151,33.25c-3.642,2.034-9.075,4.203-16.304,6.506
	c-6.853,2.142-11.391,4.042-13.613,5.702c-2.222,1.66-3.333,4.338-3.333,8.031v2.089c2.357,1.339,4.23,3.199,5.623,5.581
	s2.088,4.966,2.088,7.751c0,4.283-1.5,7.924-4.498,10.921c-2.999,2.999-6.639,4.499-10.923,4.499c-4.283,0-7.924-1.5-10.922-4.499
	c-2.998-2.997-4.498-6.638-4.498-10.921c0-2.785,0.696-5.368,2.088-7.751c1.393-2.383,3.266-4.243,5.622-5.581V32.159
	c-2.356-1.339-4.229-3.199-5.622-5.582c-1.392-2.382-2.088-4.966-2.088-7.75c0-4.283,1.5-7.924,4.498-10.922
	c2.999-2.998,6.64-4.498,10.922-4.498c4.284,0,7.924,1.5,10.923,4.498c2.999,2.999,4.498,6.64,4.498,10.922
	c0,2.784-0.696,5.368-2.088,7.75c-1.392,2.383-3.266,4.244-5.623,5.582v39.916c2.892-1.392,7.015-2.918,12.369-4.578
	c2.945-0.909,5.288-1.699,7.028-2.367c1.739-0.67,3.626-1.5,5.661-2.491c2.035-0.99,3.615-2.047,4.739-3.172
	c1.123-1.124,2.207-2.489,3.252-4.096c1.045-1.606,1.795-3.467,2.249-5.582c0.455-2.115,0.683-4.564,0.684-7.349
	c-2.356-1.338-4.229-3.199-5.622-5.581c-1.393-2.383-2.089-4.966-2.089-7.75c0-4.284,1.5-7.925,4.498-10.923
	c2.998-2.999,6.639-4.498,10.923-4.498c4.282,0,7.924,1.499,10.922,4.498c2.998,2.998,4.497,6.639,4.497,10.923V29.107z"/>
</svg>
