<?xml version="1.0" encoding="utf-8"?>
<!-- Generator: Adobe Illustrator 16.0.0, SVG Export Plug-In . SVG Version: 6.00 Build 0)  -->
<!DOCTYPE svg PUBLIC "-//W3C//DTD SVG 1.1//EN" "http://www.w3.org/Graphics/SVG/1.1/DTD/svg11.dtd">
<svg version="1.1" id="Layer_1" xmlns="http://www.w3.org/2000/svg" xmlns:xlink="http://www.w3.org/1999/xlink" x="0px" y="0px"
	 width="137px" height="128px" viewBox="0 0 137 128" enable-background="new 0 0 137 128" xml:space="preserve">
<path d="M128,92.9V18.4c0-0.6-0.2-1.2-0.7-1.6c-0.5-0.5-1-0.7-1.6-0.7H11.4c-0.6,0-1.2,0.2-1.6,0.7c-0.5,0.5-0.7,1-0.7,1.6v74.4
	C9.1,93.4,9.3,94,9.8,94.4c0.5,0.399,1,0.699,1.6,0.699h114.3c0.6,0,1.2-0.199,1.6-0.699C127.8,94,128,93.5,128,92.9z M137.1,18.4
	v77.7c0,3.101-1.1,5.801-3.399,8.101c-2.2,2.2-4.9,3.399-8.101,3.399H86.9c0,1.801,0.399,3.601,1.1,5.5c0.8,1.9,1.5,3.601,2.3,5.101
	s1.101,2.5,1.101,3.1c0,1.2-0.5,2.3-1.4,3.2s-2,1.4-3.2,1.4H50.3c-1.2,0-2.3-0.5-3.2-1.4s-1.4-2-1.4-3.2c0-0.7,0.4-1.7,1.1-3.1
	c0.8-1.4,1.5-3.101,2.3-5c0.8-1.9,1.1-3.8,1.1-5.601H11.4c-3.1,0-5.8-1.1-8.1-3.399C1.1,102,0,99.3,0,96.1V18.4
	c0-3.1,1.1-5.8,3.4-8.1C5.6,8.1,8.3,7,11.4,7h114.3c3.1,0,5.8,1.1,8.1,3.4C136,12.6,137.1,15.3,137.1,18.4L137.1,18.4z"/>
<path d="M120.3,25.8V86H29C29,86,50.8,33.8,120.3,25.8z"/>
</svg>
