<?xml version="1.0" encoding="utf-8"?>
<!-- Adobe Illustrator 16.0.0, SVG Export Plug-In . SVG Version: 6.00 Build 0)  -->
<!DOCTYPE svg PUBLIC "-//W3C//DTD SVG 1.1//EN" "http://www.w3.org/Graphics/SVG/1.1/DTD/svg11.dtd">
<svg version="1.1" id="Layer_1" xmlns="http://www.w3.org/2000/svg" xmlns:xlink="http://www.w3.org/1999/xlink" x="0px" y="0px"
	 width="128px" height="128px" viewBox="0 0 128 128" style="enable-background:new 0 0 128 128;" xml:space="preserve">
<path d="M104,128c-4.4,0-8.2-1.6-11.3-4.7c-3.1-3.1-4.7-6.9-4.7-11.3c0-2.9,0.7-5.6,2.2-8c1.5-2.4,3.4-4.3,5.8-5.8V48
	c0-6.7-2.3-12.3-7-17s-10.3-7-17-7V8c0,0,13.9,1.8,20.1,5.4c6.1,3.6,11,8.4,14.6,14.6S112,40.8,112,48v50.3c2.4,1.4,4.4,3.3,5.8,5.8
	c1.5,2.4,2.2,5.1,2.2,8c0,4.4-1.6,8.2-4.7,11.3C112.2,126.4,108.4,128,104,128L104,128z M103.9,104c-2.2,0-4.1,0.8-5.6,2.3
	c-1.5,1.5-2.3,3.4-2.3,5.6c0,2.2,0.8,4.1,2.3,5.7c1.5,1.6,3.4,2.4,5.6,2.4c2.2,0,4.1-0.8,5.7-2.4s2.4-3.5,2.4-5.7
	c0-2.2-0.8-4.1-2.4-5.6C108,104.8,106.1,104,103.9,104z M48,112c0,4.4-1.6,8.2-4.7,11.3c-3.1,3.1-6.9,4.7-11.3,4.7
	s-8.2-1.6-11.3-4.7c-3.1-3.1-4.7-6.9-4.7-11.3c0-2.9,0.7-5.6,2.2-8s3.4-4.3,5.8-5.8V29.8c-2.4-1.4-4.4-3.3-5.8-5.8S16,18.9,16,16
	c0-4.4,1.6-8.2,4.7-11.3S27.6,0,32,0s8.2,1.6,11.3,4.7S48,11.6,48,16c0,2.9-0.7,5.6-2.2,8s-3.4,4.3-5.8,5.8v68.5
	c2.4,1.4,4.4,3.3,5.8,5.8S48,109.1,48,112z M31.9,8c-2.2,0-4.1,0.8-5.6,2.3S24,13.7,24,15.9s0.8,4.1,2.3,5.7s3.4,2.4,5.6,2.4
	s4.1-0.8,5.7-2.4s2.4-3.5,2.4-5.7s-0.8-4.1-2.4-5.6S34.1,8,31.9,8z M31.9,104c-2.2,0-4.1,0.8-5.6,2.3c-1.5,1.5-2.3,3.4-2.3,5.6
	c0,2.2,0.8,4.1,2.3,5.7s3.4,2.4,5.6,2.4s4.1-0.8,5.7-2.4s2.4-3.5,2.4-5.7c0-2.2-0.8-4.1-2.4-5.6C36,104.8,34.1,104,31.9,104z M72,24
	c0,0,13.9-14.2,20.1-10.6"/>
<polygon points="72,0 48.3,15.7 72,32.3 72,24 "/>
</svg>
