<?xml version="1.0" encoding="utf-8"?>
<!-- Generator: Adobe Illustrator 16.0.0, SVG Export Plug-In . SVG Version: 6.00 Build 0)  -->
<!DOCTYPE svg PUBLIC "-//W3C//DTD SVG 1.1//EN" "http://www.w3.org/Graphics/SVG/1.1/DTD/svg11.dtd">
<svg version="1.1" id="Layer_1" xmlns="http://www.w3.org/2000/svg" xmlns:xlink="http://www.w3.org/1999/xlink" x="0px" y="0px"
	 width="128px" height="128px" viewBox="0 0 128 128" enable-background="new 0 0 128 128" xml:space="preserve">
<path d="M31.999,75.624v22.625c2.417,1.417,4.354,3.333,5.813,5.75s2.188,5.083,2.188,8c0,4.417-1.563,8.188-4.688,11.313
	C32.187,126.438,28.416,128,23.999,128s-8.188-1.563-11.313-4.688c-3.125-3.126-4.688-6.896-4.688-11.313
	c0-2.917,0.729-5.583,2.188-8s3.396-4.333,5.813-5.75v-68.5c-2.417-1.417-4.354-3.333-5.813-5.75s-2.188-5.083-2.188-8
	c0-4.417,1.563-8.188,4.688-11.313s6.896-4.688,11.313-4.688s8.188,1.563,11.313,4.688S40,11.583,40,15.999
	c0,2.75-0.646,5.292-1.938,7.625s-3.021,4.208-5.188,5.625L31.999,75.624z M23.938,120c2.208,0,4.104-0.771,5.688-2.313
	c1.583-1.543,2.375-3.418,2.375-5.625c0-2.209-0.792-4.104-2.375-5.688s-3.479-2.376-5.688-2.375s-4.083,0.792-5.625,2.375
	S16,109.853,16,112.063c0,2.209,0.771,4.084,2.313,5.625C19.855,119.228,21.73,119.998,23.938,120z M23.938,8
	c-2.208,0-4.083,0.771-5.625,2.313S16,13.751,16,16.001s0.771,4.146,2.313,5.688s3.417,2.313,5.625,2.313s4.104-0.792,5.688-2.375
	s2.376-3.479,2.375-5.688s-0.793-4.083-2.375-5.625S26.148,8.001,23.938,8L23.938,8z"/>
<path d="M31.628,26.639c3.609,9.74,8.453,15.067,19.14,23.479c12.544,9.873,26.837,15.515,41.076,15.354
	c2.018-4.597,5.433-7.458,10.244-8.585c3.986-0.933,7.719-0.319,11.199,1.84c3.48,2.161,5.688,5.232,6.621,9.219
	c0.932,3.984,0.319,7.718-1.84,11.197c-2.159,3.48-5.232,5.688-9.218,6.621v-0.002c-2.932,0.687-5.769,0.518-8.507-0.508
	c-2.738-1.023-4.972-2.681-6.697-4.975c-11.096,0.377-22.116-1.654-32.641-6.289c-10.523-4.634-23.991-13.435-32.4-22.251
	L31.628,26.639z M103.725,64.118c-1.993,0.465-3.522,1.559-4.588,3.275c-1.064,1.717-1.359,3.592-0.886,5.621
	c0.477,2.03,1.573,3.577,3.288,4.644c1.719,1.064,3.572,1.364,5.564,0.897c1.993-0.466,3.535-1.579,4.632-3.344
	c1.096-1.765,1.408-3.641,0.94-5.634c-0.467-1.994-1.577-3.519-3.331-4.573c-1.753-1.058-3.626-1.353-5.621-0.885L103.725,64.118z"
	/>
</svg>
