<?xml version="1.0" encoding="utf-8"?>
<!-- Adobe Illustrator 16.0.0, SVG Export Plug-In . SVG Version: 6.00 Build 0)  -->
<!DOCTYPE svg PUBLIC "-//W3C//DTD SVG 1.1//EN" "http://www.w3.org/Graphics/SVG/1.1/DTD/svg11.dtd">
<svg version="1.1" xmlns="http://www.w3.org/2000/svg" xmlns:xlink="http://www.w3.org/1999/xlink" width="128" height="128" viewBox="0 0 128 128">
	<path d="M104 128q-4.875 0-8.813-2.625t-5.813-6.875q-17.625-3.5-32.5-14.688t-24.875-28.188v22.625q3.625 2.125 5.813 5.75t2.188 8q0 6.625-4.688 11.313t-11.313 4.688-11.313-4.688-4.688-11.313q0-4.375 2.188-8t5.813-5.75v-68.5q-3.625-2.125-5.813-5.75t-2.188-8q0-6.625 4.688-11.313t11.313-4.688 11.313 4.688 4.688 11.313q0 4.125-1.938 7.625t-5.188 5.625q3.5 27.875 19.625 48.063t38.625 25.188q4.875-6.5 12.875-6.5 6.625 0 11.313 4.688t4.688 11.313-4.688 11.313-11.313 4.688zM23.938 120q3.313 0 5.688-2.313t2.375-5.625-2.375-5.688-5.688-2.375-5.625 2.375-2.313 5.688 2.313 5.625 5.625 2.313zM23.938 8q-3.313 0-5.625 2.313t-2.313 5.688 2.313 5.688 5.625 2.313 5.688-2.375 2.375-5.688-2.375-5.625-5.688-2.313zM103.938 104q-3.313 0-5.625 2.313t-2.313 5.688 2.313 5.688 5.625 2.313 5.688-2.375 2.375-5.688-2.375-5.625-5.688-2.313z" fill="#000000" />
</svg>
