<?xml version="1.0" encoding="utf-8"?>
<!-- Generator: Adobe Illustrator 16.0.0, SVG Export Plug-In . SVG Version: 6.00 Build 0)  -->
<!DOCTYPE svg PUBLIC "-//W3C//DTD SVG 1.1//EN" "http://www.w3.org/Graphics/SVG/1.1/DTD/svg11.dtd">
<svg version="1.1" id="Layer_1" xmlns="http://www.w3.org/2000/svg" xmlns:xlink="http://www.w3.org/1999/xlink" x="0px" y="0px"
	 width="150.5px" height="146px" viewBox="-4.5 -13.295 150.5 146" enable-background="new -4.5 -13.295 150.5 146"
	 xml:space="preserve">
<path d="M42.423,55.83c-8.41,0.256-15.299,3.548-20.67,9.875H11.32c-4.256,0-7.834-1.04-10.734-3.124s-4.342-5.13-4.327-9.142
	c0.065-18.156,3.316-27.233,9.753-27.233c0.312,0,1.439,0.54,3.38,1.62c1.944,1.08,4.47,2.173,7.581,3.279
	c3.111,1.106,6.196,1.659,9.26,1.659c3.478,0,6.932-0.591,10.363-1.775c-0.267,1.903-0.403,3.6-0.408,5.091
	C36.162,43.23,38.241,49.814,42.423,55.83L42.423,55.83z M125.64,104.972c-0.022,6.174-1.935,11.048-5.738,14.621
	c-3.803,3.576-8.844,5.361-15.124,5.361H36.723c-6.281,0-11.31-1.785-15.086-5.361c-3.776-3.573-5.653-8.447-5.631-14.621
	c0.01-2.724,0.11-5.386,0.301-7.984c0.192-2.596,0.565-5.4,1.121-8.41c0.557-3.007,1.254-5.799,2.094-8.37
	c0.84-2.57,1.965-5.078,3.375-7.521s3.028-4.527,4.851-6.251c1.824-1.723,4.048-3.097,6.673-4.126
	c2.624-1.028,5.52-1.542,8.687-1.545c0.519,0,1.633,0.555,3.342,1.661c1.71,1.105,3.6,2.339,5.671,3.704
	c2.07,1.362,4.843,2.598,8.318,3.702c3.473,1.108,6.976,1.662,10.505,1.662c3.53,0,7.036-0.554,10.519-1.662
	c3.481-1.102,6.264-2.339,8.346-3.702c2.081-1.365,3.98-2.598,5.696-3.704c1.718-1.106,2.837-1.661,3.354-1.661
	c3.166,0,6.06,0.516,8.676,1.545c2.618,1.03,4.832,2.405,6.643,4.126c1.811,1.724,3.412,3.807,4.806,6.251
	c1.393,2.442,2.499,4.952,3.32,7.521c0.82,2.571,1.499,5.363,2.033,8.37c0.535,3.01,0.888,5.814,1.059,8.41
	c0.172,2.595,0.254,5.259,0.244,7.984H125.64z M46.262,6.456c-0.02,5.451-1.983,10.106-5.891,13.963
	c-3.906,3.858-8.612,5.788-14.115,5.786c-5.502,0-10.194-1.929-14.073-5.786c-3.878-3.855-5.809-8.511-5.789-13.963
	c0.02-5.454,1.984-10.107,5.89-13.965c3.907-3.856,8.613-5.786,14.115-5.786c5.503,0,10.194,1.928,14.073,5.786
	C44.352-3.651,46.281,1.004,46.262,6.456z M100.972,36.079c-0.029,8.178-2.977,15.16-8.836,20.948
	c-5.86,5.785-12.919,8.678-21.172,8.678s-15.29-2.893-21.108-8.678c-5.819-5.788-8.714-12.769-8.685-20.948
	c0.03-8.178,2.975-15.159,8.836-20.946c5.86-5.786,12.918-8.678,21.171-8.678c8.254,0,15.289,2.893,21.109,8.678
	C98.104,20.92,101.001,27.902,100.972,36.079z M145.759,53.438c-0.015,4.012-1.478,7.058-4.394,9.142
	c-2.914,2.084-6.499,3.124-10.756,3.124h-10.434c-5.323-6.327-12.19-9.618-20.599-9.875c4.225-6.017,6.354-12.601,6.379-19.75
	c0.006-1.49-0.119-3.188-0.371-5.091c3.421,1.184,6.872,1.774,10.349,1.774c3.063,0,6.153-0.552,9.272-1.659
	c3.119-1.106,5.655-2.199,7.604-3.28c1.95-1.08,3.08-1.62,3.393-1.62C142.639,26.204,145.824,35.283,145.759,53.438L145.759,53.438z
	 M135.962,6.456c-0.02,5.451-1.982,10.106-5.891,13.963c-3.904,3.858-8.611,5.788-14.114,5.786c-5.502,0-10.192-1.929-14.073-5.786
	c-3.879-3.856-5.809-8.511-5.789-13.963c0.02-5.454,1.983-10.107,5.891-13.965c3.906-3.856,8.612-5.786,14.114-5.786
	c5.503,0,10.195,1.928,14.073,5.786C134.053-3.651,135.981,1.004,135.962,6.456z"/>
</svg>
