<?xml version="1.0" encoding="utf-8"?>
<!-- Adobe Illustrator 16.0.0, SVG Export Plug-In . SVG Version: 6.00 Build 0)  -->
<!DOCTYPE svg PUBLIC "-//W3C//DTD SVG 1.1//EN" "http://www.w3.org/Graphics/SVG/1.1/DTD/svg11.dtd">
<svg version="1.1" xmlns="http://www.w3.org/2000/svg" xmlns:xlink="http://www.w3.org/1999/xlink" width="119" height="128" viewBox="0 0 119 128">
	<path d="M100.571 70.857v34.286q0 1.857-1.357 3.214t-3.214 1.357h-27.429v-27.429h-18.286v27.429h-27.429q-1.857 0-3.214-1.357t-1.357-3.214v-34.286q0-0.071 0.036-0.214t0.036-0.214l41.071-33.857 41.071 33.857q0.071 0.143 0.071 0.429zM116.5 65.929l-4.429 5.286q-0.571 0.643-1.5 0.786h-0.214q-0.929 0-1.5-0.5l-49.429-41.214-49.429 41.214q-0.857 0.571-1.714 0.5-0.929-0.143-1.5-0.786l-4.429-5.286q-0.571-0.714-0.5-1.679t0.786-1.536l51.357-42.786q2.286-1.857 5.429-1.857t5.429 1.857l17.429 14.571v-13.929q0-1 0.643-1.643t1.643-0.643h13.714q1 0 1.643 0.643t0.643 1.643v29.143l15.643 13q0.714 0.571 0.786 1.536t-0.5 1.679z" fill="#000000" />
</svg>
