<?xml version="1.0" encoding="utf-8"?>
<!-- Adobe Illustrator 16.0.0, SVG Export Plug-In . SVG Version: 6.00 Build 0)  -->
<!DOCTYPE svg PUBLIC "-//W3C//DTD SVG 1.1//EN" "http://www.w3.org/Graphics/SVG/1.1/DTD/svg11.dtd">
<svg version="1.1" xmlns="http://www.w3.org/2000/svg" xmlns:xlink="http://www.w3.org/1999/xlink" width="64" height="128" viewBox="0 0 64 128">
	<path d="M64.143 33.571v7.286q0 1-0.643 1.643t-1.643 0.643h-12q-1.643 10.286-9.214 16.714t-19.714 7.857q11.929 12.714 32.786 38.286 1 1.143 0.286 2.429-0.571 1.286-2.071 1.286h-13.929q-1.143 0-1.786-0.857-21.857-26.214-35.571-40.786-0.643-0.643-0.643-1.571v-9.071q0-0.929 0.679-1.607t1.607-0.679h8q9.429 0 15.179-3.071t7.321-8.929h-30.5q-1 0-1.643-0.643t-0.643-1.643v-7.286q0-1 0.643-1.643t1.643-0.643h29.5q-4.071-8.071-19.143-8.071h-10.357q-0.929 0-1.607-0.679t-0.679-1.607v-9.5q0-1 0.643-1.643t1.643-0.643h59.429q1 0 1.643 0.643t0.643 1.643v7.286q0 1-0.643 1.643t-1.643 0.643h-16.643q3.357 4.357 4.571 10.286h12.214q1 0 1.643 0.643t0.643 1.643z" fill="#000000" />
</svg>
